<svg id="visual" viewBox="0 0 900 600" width="900" height="600" xmlns="http://www.w3.org/2000/svg" xmlns:xlink="http://www.w3.org/1999/xlink" version="1.1"><g stroke-width="1" stroke-linejoin="bevel"><path d="M443 283L429 265L429 330Z" fill="#a6c4db" stroke="#a6c4db"></path><path d="M429 265L367 344L429 330Z" fill="#c7d9e7" stroke="#c7d9e7"></path><path d="M367 344L378 359L429 330Z" fill="#96b9d5" stroke="#96b9d5"></path><path d="M501 433L488 335L429 330Z" fill="#75a4ca" stroke="#75a4ca"></path><path d="M429 330L488 335L443 283Z" fill="#c7d9e7" stroke="#c7d9e7"></path><path d="M443 283L473 165L429 265Z" fill="#6499c4" stroke="#6499c4"></path><path d="M429 265L375 210L367 344Z" fill="#c7d9e7" stroke="#c7d9e7"></path><path d="M367 344L325 386L378 359Z" fill="#86aecf" stroke="#86aecf"></path><path d="M378 359L501 433L429 330Z" fill="#c7d9e7" stroke="#c7d9e7"></path><path d="M275 326L325 386L367 344Z" fill="#a6c4db" stroke="#a6c4db"></path><path d="M501 433L537 323L488 335Z" fill="#96b9d5" stroke="#96b9d5"></path><path d="M488 335L537 323L443 283Z" fill="#538ebf" stroke="#538ebf"></path><path d="M429 265L473 165L375 210Z" fill="#75a4ca" stroke="#75a4ca"></path><path d="M375 210L275 326L367 344Z" fill="#d8e4ed" stroke="#d8e4ed"></path><path d="M566 181L473 165L443 283Z" fill="#e9eff3" stroke="#e9eff3"></path><path d="M331 146L308 185L375 210Z" fill="#96b9d5" stroke="#96b9d5"></path><path d="M375 210L249 250L275 326Z" fill="#96b9d5" stroke="#96b9d5"></path><path d="M308 185L249 250L375 210Z" fill="#b7cfe1" stroke="#b7cfe1"></path><path d="M494 457L501 433L378 359Z" fill="#75a4ca" stroke="#75a4ca"></path><path d="M473 165L357 139L375 210Z" fill="#b7cfe1" stroke="#b7cfe1"></path><path d="M501 433L569 336L537 323Z" fill="#86aecf" stroke="#86aecf"></path><path d="M566 181L519 150L473 165Z" fill="#a6c4db" stroke="#a6c4db"></path><path d="M357 139L331 146L375 210Z" fill="#6499c4" stroke="#6499c4"></path><path d="M308 185L191 114L249 250Z" fill="#b7cfe1" stroke="#b7cfe1"></path><path d="M249 250L239 332L275 326Z" fill="#86aecf" stroke="#86aecf"></path><path d="M275 326L239 350L325 386Z" fill="#538ebf" stroke="#538ebf"></path><path d="M239 350L313 444L325 386Z" fill="#3f84b9" stroke="#3f84b9"></path><path d="M325 386L355 480L378 359Z" fill="#75a4ca" stroke="#75a4ca"></path><path d="M239 332L239 350L275 326Z" fill="#b7cfe1" stroke="#b7cfe1"></path><path d="M355 480L494 457L378 359Z" fill="#3f84b9" stroke="#3f84b9"></path><path d="M501 433L615 379L569 336Z" fill="#75a4ca" stroke="#75a4ca"></path><path d="M566 181L443 283L537 323Z" fill="#e9eff3" stroke="#e9eff3"></path><path d="M473 165L488 85L357 139Z" fill="#6499c4" stroke="#6499c4"></path><path d="M313 444L355 480L325 386Z" fill="#d8e4ed" stroke="#d8e4ed"></path><path d="M631 263L566 181L537 323Z" fill="#86aecf" stroke="#86aecf"></path><path d="M357 139L305 109L331 146Z" fill="#b7cfe1" stroke="#b7cfe1"></path><path d="M331 146L305 109L308 185Z" fill="#a6c4db" stroke="#a6c4db"></path><path d="M399 41L305 109L357 139Z" fill="#96b9d5" stroke="#96b9d5"></path><path d="M313 444L330 507L355 480Z" fill="#3f84b9" stroke="#3f84b9"></path><path d="M481 564L529 519L494 457Z" fill="#a6c4db" stroke="#a6c4db"></path><path d="M287 525L330 507L313 444Z" fill="#538ebf" stroke="#538ebf"></path><path d="M578 497L615 379L501 433Z" fill="#e9eff3" stroke="#e9eff3"></path><path d="M569 336L631 263L537 323Z" fill="#6499c4" stroke="#6499c4"></path><path d="M637 319L631 263L569 336Z" fill="#96b9d5" stroke="#96b9d5"></path><path d="M544 45L488 85L519 150Z" fill="#86aecf" stroke="#86aecf"></path><path d="M519 150L488 85L473 165Z" fill="#b7cfe1" stroke="#b7cfe1"></path><path d="M615 379L637 319L569 336Z" fill="#b7cfe1" stroke="#b7cfe1"></path><path d="M631 263L619 182L566 181Z" fill="#538ebf" stroke="#538ebf"></path><path d="M566 181L544 45L519 150Z" fill="#b7cfe1" stroke="#b7cfe1"></path><path d="M481 564L494 457L355 480Z" fill="#6499c4" stroke="#6499c4"></path><path d="M494 457L578 497L501 433Z" fill="#c7d9e7" stroke="#c7d9e7"></path><path d="M488 85L399 41L357 139Z" fill="#d8e4ed" stroke="#d8e4ed"></path><path d="M216 499L287 525L313 444Z" fill="#e9eff3" stroke="#e9eff3"></path><path d="M386 600L481 564L355 480Z" fill="#e9eff3" stroke="#e9eff3"></path><path d="M529 519L578 497L494 457Z" fill="#a6c4db" stroke="#a6c4db"></path><path d="M615 379L700 348L637 319Z" fill="#6499c4" stroke="#6499c4"></path><path d="M239 332L139 334L239 350Z" fill="#75a4ca" stroke="#75a4ca"></path><path d="M239 350L193 473L313 444Z" fill="#c7d9e7" stroke="#c7d9e7"></path><path d="M249 250L140 327L239 332Z" fill="#a6c4db" stroke="#a6c4db"></path><path d="M114 268L140 327L249 250Z" fill="#538ebf" stroke="#538ebf"></path><path d="M140 327L139 334L239 332Z" fill="#c7d9e7" stroke="#c7d9e7"></path><path d="M139 334L193 473L239 350Z" fill="#b7cfe1" stroke="#b7cfe1"></path><path d="M193 473L216 499L313 444Z" fill="#538ebf" stroke="#538ebf"></path><path d="M386 600L355 480L330 507Z" fill="#75a4ca" stroke="#75a4ca"></path><path d="M529 519L569 600L578 497Z" fill="#e9eff3" stroke="#e9eff3"></path><path d="M578 497L643 444L615 379Z" fill="#c7d9e7" stroke="#c7d9e7"></path><path d="M96 363L190 475L193 473Z" fill="#6499c4" stroke="#6499c4"></path><path d="M193 473L190 475L216 499Z" fill="#75a4ca" stroke="#75a4ca"></path><path d="M223 36L191 114L305 109Z" fill="#a6c4db" stroke="#a6c4db"></path><path d="M305 109L191 114L308 185Z" fill="#b7cfe1" stroke="#b7cfe1"></path><path d="M619 182L544 45L566 181Z" fill="#75a4ca" stroke="#75a4ca"></path><path d="M467 0L395 0L399 41Z" fill="#86aecf" stroke="#86aecf"></path><path d="M115 210L114 268L249 250Z" fill="#a6c4db" stroke="#a6c4db"></path><path d="M140 327L96 363L139 334Z" fill="#96b9d5" stroke="#96b9d5"></path><path d="M139 334L96 363L193 473Z" fill="#a6c4db" stroke="#a6c4db"></path><path d="M191 114L138 174L249 250Z" fill="#3f84b9" stroke="#3f84b9"></path><path d="M467 0L399 41L488 85Z" fill="#6499c4" stroke="#6499c4"></path><path d="M399 41L330 0L305 109Z" fill="#86aecf" stroke="#86aecf"></path><path d="M637 319L700 348L631 263Z" fill="#a6c4db" stroke="#a6c4db"></path><path d="M631 263L701 186L619 182Z" fill="#75a4ca" stroke="#75a4ca"></path><path d="M710 371L700 348L615 379Z" fill="#86aecf" stroke="#86aecf"></path><path d="M337 600L330 507L287 525Z" fill="#75a4ca" stroke="#75a4ca"></path><path d="M337 600L386 600L330 507Z" fill="#538ebf" stroke="#538ebf"></path><path d="M138 174L115 210L249 250Z" fill="#96b9d5" stroke="#96b9d5"></path><path d="M544 45L467 0L488 85Z" fill="#b7cfe1" stroke="#b7cfe1"></path><path d="M386 600L458 600L481 564Z" fill="#86aecf" stroke="#86aecf"></path><path d="M481 564L569 600L529 519Z" fill="#b7cfe1" stroke="#b7cfe1"></path><path d="M578 497L670 479L643 444Z" fill="#75a4ca" stroke="#75a4ca"></path><path d="M395 0L330 0L399 41Z" fill="#d8e4ed" stroke="#d8e4ed"></path><path d="M196 600L337 600L287 525Z" fill="#c7d9e7" stroke="#c7d9e7"></path><path d="M643 444L710 371L615 379Z" fill="#e9eff3" stroke="#e9eff3"></path><path d="M711 209L701 186L631 263Z" fill="#e9eff3" stroke="#e9eff3"></path><path d="M619 182L629 32L544 45Z" fill="#75a4ca" stroke="#75a4ca"></path><path d="M711 209L631 263L700 348Z" fill="#6499c4" stroke="#6499c4"></path><path d="M52 336L140 327L114 268Z" fill="#e9eff3" stroke="#e9eff3"></path><path d="M52 336L96 363L140 327Z" fill="#c7d9e7" stroke="#c7d9e7"></path><path d="M742 221L711 209L700 348Z" fill="#75a4ca" stroke="#75a4ca"></path><path d="M256 0L223 36L305 109Z" fill="#6499c4" stroke="#6499c4"></path><path d="M191 114L53 126L138 174Z" fill="#e9eff3" stroke="#e9eff3"></path><path d="M138 174L53 126L115 210Z" fill="#75a4ca" stroke="#75a4ca"></path><path d="M643 444L670 479L710 371Z" fill="#3f84b9" stroke="#3f84b9"></path><path d="M697 542L670 479L578 497Z" fill="#96b9d5" stroke="#96b9d5"></path><path d="M223 36L186 50L191 114Z" fill="#d8e4ed" stroke="#d8e4ed"></path><path d="M330 0L256 0L305 109Z" fill="#c7d9e7" stroke="#c7d9e7"></path><path d="M223 36L134 0L186 50Z" fill="#b7cfe1" stroke="#b7cfe1"></path><path d="M588 0L561 0L544 45Z" fill="#b7cfe1" stroke="#b7cfe1"></path><path d="M544 45L561 0L467 0Z" fill="#538ebf" stroke="#538ebf"></path><path d="M458 600L569 600L481 564Z" fill="#86aecf" stroke="#86aecf"></path><path d="M711 209L728 164L701 186Z" fill="#b7cfe1" stroke="#b7cfe1"></path><path d="M698 70L629 32L619 182Z" fill="#b7cfe1" stroke="#b7cfe1"></path><path d="M778 278L742 221L700 348Z" fill="#6499c4" stroke="#6499c4"></path><path d="M698 70L619 182L701 186Z" fill="#86aecf" stroke="#86aecf"></path><path d="M742 221L728 164L711 209Z" fill="#96b9d5" stroke="#96b9d5"></path><path d="M629 32L588 0L544 45Z" fill="#6499c4" stroke="#6499c4"></path><path d="M190 475L177 567L216 499Z" fill="#e9eff3" stroke="#e9eff3"></path><path d="M216 499L196 600L287 525Z" fill="#86aecf" stroke="#86aecf"></path><path d="M51 514L177 567L190 475Z" fill="#e9eff3" stroke="#e9eff3"></path><path d="M0 278L52 336L114 268Z" fill="#b7cfe1" stroke="#b7cfe1"></path><path d="M96 363L50 477L190 475Z" fill="#b7cfe1" stroke="#b7cfe1"></path><path d="M0 278L114 268L0 257Z" fill="#b7cfe1" stroke="#b7cfe1"></path><path d="M569 600L600 600L578 497Z" fill="#a6c4db" stroke="#a6c4db"></path><path d="M177 567L196 600L216 499Z" fill="#d8e4ed" stroke="#d8e4ed"></path><path d="M728 164L698 70L701 186Z" fill="#96b9d5" stroke="#96b9d5"></path><path d="M629 32L633 0L588 0Z" fill="#96b9d5" stroke="#96b9d5"></path><path d="M783 310L700 348L710 371Z" fill="#c7d9e7" stroke="#c7d9e7"></path><path d="M783 310L778 278L700 348Z" fill="#86aecf" stroke="#86aecf"></path><path d="M853 194L753 117L728 164Z" fill="#538ebf" stroke="#538ebf"></path><path d="M728 164L753 117L698 70Z" fill="#a6c4db" stroke="#a6c4db"></path><path d="M708 0L633 0L629 32Z" fill="#96b9d5" stroke="#96b9d5"></path><path d="M822 333L783 310L710 371Z" fill="#86aecf" stroke="#86aecf"></path><path d="M781 440L710 371L670 479Z" fill="#e9eff3" stroke="#e9eff3"></path><path d="M600 600L697 542L578 497Z" fill="#d8e4ed" stroke="#d8e4ed"></path><path d="M853 194L728 164L742 221Z" fill="#b7cfe1" stroke="#b7cfe1"></path><path d="M698 70L708 0L629 32Z" fill="#a6c4db" stroke="#a6c4db"></path><path d="M834 233L742 221L778 278Z" fill="#3f84b9" stroke="#3f84b9"></path><path d="M66 32L53 126L186 50Z" fill="#3f84b9" stroke="#3f84b9"></path><path d="M186 50L53 126L191 114Z" fill="#e9eff3" stroke="#e9eff3"></path><path d="M0 332L50 477L52 336Z" fill="#b7cfe1" stroke="#b7cfe1"></path><path d="M52 336L50 477L96 363Z" fill="#e9eff3" stroke="#e9eff3"></path><path d="M177 567L105 600L196 600Z" fill="#3f84b9" stroke="#3f84b9"></path><path d="M782 494L781 440L670 479Z" fill="#b7cfe1" stroke="#b7cfe1"></path><path d="M256 0L134 0L223 36Z" fill="#86aecf" stroke="#86aecf"></path><path d="M0 257L114 268L115 210Z" fill="#b7cfe1" stroke="#b7cfe1"></path><path d="M0 278L0 332L52 336Z" fill="#538ebf" stroke="#538ebf"></path><path d="M0 167L0 257L115 210Z" fill="#d8e4ed" stroke="#d8e4ed"></path><path d="M0 482L51 514L50 477Z" fill="#e9eff3" stroke="#e9eff3"></path><path d="M50 477L51 514L190 475Z" fill="#e9eff3" stroke="#e9eff3"></path><path d="M781 440L822 333L710 371Z" fill="#c7d9e7" stroke="#c7d9e7"></path><path d="M783 310L822 333L778 278Z" fill="#538ebf" stroke="#538ebf"></path><path d="M697 542L782 494L670 479Z" fill="#6499c4" stroke="#6499c4"></path><path d="M600 600L701 600L697 542Z" fill="#c7d9e7" stroke="#c7d9e7"></path><path d="M134 0L66 32L186 50Z" fill="#6499c4" stroke="#6499c4"></path><path d="M795 0L708 0L698 70Z" fill="#75a4ca" stroke="#75a4ca"></path><path d="M756 600L782 494L697 542Z" fill="#d8e4ed" stroke="#d8e4ed"></path><path d="M781 440L812 455L822 333Z" fill="#b7cfe1" stroke="#b7cfe1"></path><path d="M0 119L0 167L53 126Z" fill="#b7cfe1" stroke="#b7cfe1"></path><path d="M53 126L0 167L115 210Z" fill="#6499c4" stroke="#6499c4"></path><path d="M51 514L105 600L177 567Z" fill="#3f84b9" stroke="#3f84b9"></path><path d="M104 0L66 32L134 0Z" fill="#86aecf" stroke="#86aecf"></path><path d="M51 514L96 600L105 600Z" fill="#75a4ca" stroke="#75a4ca"></path><path d="M822 333L834 233L778 278Z" fill="#75a4ca" stroke="#75a4ca"></path><path d="M753 117L795 0L698 70Z" fill="#96b9d5" stroke="#96b9d5"></path><path d="M837 496L812 455L782 494Z" fill="#3f84b9" stroke="#3f84b9"></path><path d="M782 494L812 455L781 440Z" fill="#538ebf" stroke="#538ebf"></path><path d="M900 264L853 194L834 233Z" fill="#e9eff3" stroke="#e9eff3"></path><path d="M66 32L0 119L53 126Z" fill="#96b9d5" stroke="#96b9d5"></path><path d="M0 332L0 482L50 477Z" fill="#3f84b9" stroke="#3f84b9"></path><path d="M51 514L0 600L96 600Z" fill="#6499c4" stroke="#6499c4"></path><path d="M900 280L834 233L822 333Z" fill="#6499c4" stroke="#6499c4"></path><path d="M834 233L853 194L742 221Z" fill="#a6c4db" stroke="#a6c4db"></path><path d="M0 482L0 518L51 514Z" fill="#d8e4ed" stroke="#d8e4ed"></path><path d="M701 600L756 600L697 542Z" fill="#86aecf" stroke="#86aecf"></path><path d="M805 600L837 496L782 494Z" fill="#6499c4" stroke="#6499c4"></path><path d="M900 383L900 280L822 333Z" fill="#b7cfe1" stroke="#b7cfe1"></path><path d="M851 87L795 0L753 117Z" fill="#75a4ca" stroke="#75a4ca"></path><path d="M853 194L851 87L753 117Z" fill="#d8e4ed" stroke="#d8e4ed"></path><path d="M900 383L822 333L812 455Z" fill="#b7cfe1" stroke="#b7cfe1"></path><path d="M853 194L900 163L851 87Z" fill="#b7cfe1" stroke="#b7cfe1"></path><path d="M900 280L900 264L834 233Z" fill="#538ebf" stroke="#538ebf"></path><path d="M756 600L805 600L782 494Z" fill="#c7d9e7" stroke="#c7d9e7"></path><path d="M900 452L900 383L812 455Z" fill="#96b9d5" stroke="#96b9d5"></path><path d="M900 452L812 455L837 496Z" fill="#a6c4db" stroke="#a6c4db"></path><path d="M104 0L0 0L66 32Z" fill="#c7d9e7" stroke="#c7d9e7"></path><path d="M66 32L0 0L0 119Z" fill="#d8e4ed" stroke="#d8e4ed"></path><path d="M0 518L0 600L51 514Z" fill="#3f84b9" stroke="#3f84b9"></path><path d="M900 264L900 163L853 194Z" fill="#86aecf" stroke="#86aecf"></path><path d="M851 87L900 0L795 0Z" fill="#b7cfe1" stroke="#b7cfe1"></path><path d="M900 483L900 452L837 496Z" fill="#e9eff3" stroke="#e9eff3"></path><path d="M900 600L900 483L837 496Z" fill="#a6c4db" stroke="#a6c4db"></path><path d="M900 163L900 112L851 87Z" fill="#a6c4db" stroke="#a6c4db"></path><path d="M900 112L900 0L851 87Z" fill="#d8e4ed" stroke="#d8e4ed"></path><path d="M805 600L900 600L837 496Z" fill="#a6c4db" stroke="#a6c4db"></path></g></svg>